<svg xmlns="http://www.w3.org/2000/svg" width="121" height="20" viewBox="0 0 121 20">
    <g fill="none" fill-rule="nonzero">
        <path fill="#FF5252" d="M13 12H0V3.968h9.386V1h3.57v11H13zM3.614 7.111v1.702H9.43V7.111H3.614zM25 4.043v9.394h-5.382v3.475H25V20h-9V4h9v.043zM21.735 6.96h-2.117v3.517h2.117V6.96zM37 4.043v9.394h-5.382v3.475H37V20h-9V4h9v.043zM33.735 6.96h-2.117v3.517h2.117V6.96zM41 4h13v7.826h-9.478V17H41V4zm9.478 4.652V7.13h-5.913v1.522h5.913z"/>
        <path fill="#263238" d="M67 19H54v-7.893h9.536V3H67v16zm-9.536-4.804v1.673h6.072v-1.673h-6.072zM80 3.043v9.394h-5.382v3.475H80V19h-9V3h9v.043zM76.735 5.96h-2.117v3.517h2.117V5.96zM83 0h3.5v3.055H90v3.141h-3.5V12H83zM101 3.043v9.394h-5.382v3.475H101V19h-9V3h9v.043zM97.735 5.96h-2.117v3.517h2.117V5.96zM109.958 3.044v3.16h-2.56V8.84H110V12h-6V3h5.958zM114 0h3.5v3.055h3.5v3.141h-3.5V12H114z"/>
    </g>
</svg>
